<svg width="52" height="40" viewBox="0 0 52 40" fill="none" xmlns="http://www.w3.org/2000/svg">
<path d="M43.5686 3.87834C40.3545 2.38001 36.8745 1.29251 33.2495 0.664174C33.2177 0.663157 33.1861 0.669122 33.1568 0.681648C33.1276 0.694174 33.1015 0.712958 33.0803 0.736674C32.6453 1.53417 32.1378 2.57334 31.7995 3.37084C27.9546 2.79084 24.0444 2.79084 20.1995 3.37084C19.8611 2.54917 19.3536 1.53417 18.8945 0.736674C18.8703 0.688341 18.7978 0.664174 18.7253 0.664174C15.1003 1.29251 11.6445 2.38001 8.40614 3.87834C8.38197 3.87834 8.3578 3.90251 8.33364 3.92667C1.7603 13.7625 -0.0521972 23.3325 0.841969 32.8058C0.841969 32.8542 0.866136 32.9025 0.914469 32.9267C5.26447 36.1167 9.4453 38.05 13.5778 39.3308C13.6503 39.355 13.7228 39.3308 13.747 39.2825C14.7136 37.9533 15.5836 36.5517 16.3328 35.0775C16.3811 34.9808 16.3328 34.8842 16.2361 34.86C14.8586 34.3283 13.5536 33.7 12.2728 32.975C12.1761 32.9267 12.1761 32.7817 12.2486 32.7092C12.5145 32.5158 12.7803 32.2983 13.0461 32.105C13.0945 32.0567 13.167 32.0567 13.2153 32.0808C21.5286 35.875 30.4945 35.875 38.7111 32.0808C38.7595 32.0567 38.832 32.0567 38.8803 32.105C39.1461 32.3225 39.412 32.5158 39.6778 32.7333C39.7745 32.8058 39.7745 32.9508 39.6536 32.9992C38.397 33.7483 37.0678 34.3525 35.6903 34.8842C35.5936 34.9083 35.5695 35.0292 35.5936 35.1017C36.367 36.5758 37.237 37.9775 38.1795 39.3067C38.252 39.3308 38.3245 39.355 38.397 39.3308C42.5536 38.05 46.7345 36.1167 51.0845 32.9267C51.1328 32.9025 51.157 32.8542 51.157 32.8058C52.2203 21.8583 49.3928 12.3608 43.6653 3.92667C43.6411 3.90251 43.617 3.87834 43.5686 3.87834ZM17.5895 27.03C15.1003 27.03 13.022 24.7342 13.022 21.9067C13.022 19.0792 15.052 16.7833 17.5895 16.7833C20.1511 16.7833 22.1811 19.1033 22.157 21.9067C22.157 24.7342 20.127 27.03 17.5895 27.03ZM34.4336 27.03C31.9445 27.03 29.8661 24.7342 29.8661 21.9067C29.8661 19.0792 31.8961 16.7833 34.4336 16.7833C36.9953 16.7833 39.0253 19.1033 39.0011 21.9067C39.0011 24.7342 36.9953 27.03 34.4336 27.03Z" fill="white"/>
</svg>
