<svg width="14" height="14" viewBox="0 0 14 14" fill="none" xmlns="http://www.w3.org/2000/svg">
<g clip-path="url(#clip0_3423_1846)">
<path d="M13.4173 2.33195V5.83195M13.4173 5.83195H9.91732M13.4173 5.83195L10.7107 3.28862C10.0837 2.66137 9.3081 2.20316 8.45618 1.95674C7.60426 1.71032 6.7038 1.68372 5.83882 1.87944C4.97384 2.07515 4.17253 2.48679 3.50967 3.07595C2.84681 3.66511 2.344 4.41258 2.04815 5.24862M0.583984 11.6653V8.16529M0.583984 8.16529H4.08398M0.583984 8.16529L3.29065 10.7086C3.91759 11.3359 4.6932 11.7941 5.54512 12.0405C6.39704 12.2869 7.2975 12.3135 8.16248 12.1178C9.02746 11.9221 9.82877 11.5105 10.4916 10.9213C11.1545 10.3321 11.6573 9.58466 11.9531 8.74862" stroke="#26FF34" stroke-width="1.6" stroke-linecap="round" stroke-linejoin="round"/>
</g>
<defs>
<clipPath id="clip0_3423_1846">
<rect width="14" height="14" fill="white"/>
</clipPath>
</defs>
</svg>
