<svg width="46" height="45" viewBox="0 0 46 45" fill="none" xmlns="http://www.w3.org/2000/svg">
<path d="M29.4441 12.4663L33.8371 14.9222C35.1831 15.6754 36.0072 17.0293 36.0072 18.4907V27.3555C36.0072 28.4349 35.3898 29.4334 34.3846 29.9771L29.6223 32.5828C28.0881 33.4116 26.1233 32.8905 25.2008 31.4809L16.7712 17.6645L16.8154 32.7778L12.3896 30.3855C11.2147 29.7225 10.4961 28.537 10.4961 27.2587V17.7335C10.4961 16.6501 11.1206 15.6516 12.133 15.1158L17.3316 12.3629C18.649 11.6654 20.323 12.0765 21.0986 13.2872L29.4968 27.4775L29.4426 12.4677L29.4441 12.4663Z" fill="#EC008C"/>
<path d="M23.1169 1.39628L22.7968 1.22655L22.4767 1.39628L3.14512 11.6463L2.78189 11.8389V12.25V32.75V33.1611L3.14512 33.3537L22.4767 43.6037L22.7968 43.7734L23.1169 43.6037L42.4485 33.3537L42.8118 33.1611V32.75V12.25V11.8389L42.4485 11.6463L23.1169 1.39628Z" stroke="url(#paint0_linear_1252_2274)" stroke-width="1.36667"/>
<defs>
<linearGradient id="paint0_linear_1252_2274" x1="0.474609" y1="31.4981" x2="46.6741" y2="19.4792" gradientUnits="userSpaceOnUse">
<stop stop-color="#00AEB9"/>
<stop offset="1" stop-color="#EC008C"/>
</linearGradient>
</defs>
</svg>
