<svg width="26" height="26" viewBox="0 0 26 26" fill="none" xmlns="http://www.w3.org/2000/svg">
<circle cx="20.0439" cy="5.46771" r="2.73333" fill="#EC008C"/>
<path d="M19.2763 11.6917C19.8939 17.4051 22.3228 19.1324 22.3228 19.1324H3.18945C3.18945 19.1324 6.37834 16.8651 6.37834 8.92796C6.37834 7.12411 7.05013 5.39361 8.24597 4.11806C9.4418 2.8425 11.066 2.125 12.7561 2.125C13.1154 2.125 13.4697 2.15689 13.8191 2.22067M14.595 22.3213C14.4082 22.6435 14.1399 22.9109 13.8172 23.0968C13.4945 23.2827 13.1286 23.3805 12.7561 23.3805C12.3837 23.3805 12.0178 23.2827 11.695 23.0968C11.3723 22.9109 11.1041 22.6435 10.9172 22.3213M20.1969 8.50278C21.0426 8.50278 21.8537 8.16681 22.4517 7.56877C23.0498 6.97074 23.3857 6.15964 23.3857 5.31389C23.3857 4.46814 23.0498 3.65704 22.4517 3.059C21.8537 2.46097 21.0426 2.125 20.1969 2.125C19.3511 2.125 18.54 2.46097 17.942 3.059C17.3439 3.65704 17.008 4.46814 17.008 5.31389C17.008 6.15964 17.3439 6.97074 17.942 7.56877C18.54 8.16681 19.3511 8.50278 20.1969 8.50278Z" stroke="white" stroke-width="1.59444" stroke-linecap="round" stroke-linejoin="round"/>
</svg>
