<svg width="237" height="67" viewBox="0 0 237 67" fill="none" xmlns="http://www.w3.org/2000/svg">
<path d="M26.7734 0.653542L32.9807 4.27746C34.8826 5.38889 36.0471 7.38674 36.0471 9.54309V22.624C36.0471 24.2168 35.1747 25.6903 33.7544 26.4925L27.0252 30.3375C24.8574 31.5605 22.0812 30.7915 20.7776 28.7115L8.86671 8.32403L8.92917 30.6252L2.67553 27.0952C1.01541 26.1168 0 24.3675 0 22.4812V8.42578C0 6.82711 0.88244 5.35367 2.31288 4.56314L9.65849 0.500915C11.5201 -0.52834 13.8853 0.0782551 14.9813 1.86477L26.848 22.804L26.7714 0.655499L26.7734 0.653542Z" fill="#EC008C"/>
<path d="M65.0664 5.93566H69.9399V25.4297H64.036L50.4459 11.8396V25.4297H45.5724V5.93566L51.4206 5.93566L65.0664 19.5815V5.93566ZM98.7997 10.8092C98.8833 11.2826 98.9668 11.756 98.9668 12.2573V19.1359C98.9668 19.6093 98.9111 20.0828 98.7997 20.5283C98.7997 20.5562 98.7997 20.5562 98.7997 20.5562C98.2428 22.8955 96.4048 24.7335 94.0933 25.2904C93.8148 25.3461 93.5642 25.374 93.2857 25.4018C93.0908 25.4297 92.868 25.4297 92.6452 25.4297H80.8931C80.6703 25.4297 80.4475 25.4297 80.2526 25.4018C79.9741 25.374 79.7234 25.3461 79.4728 25.2904C77.1335 24.7335 75.2955 22.8955 74.7385 20.5562C74.7107 20.3891 74.6829 20.222 74.655 20.0549C74.5993 19.7486 74.5993 19.4422 74.5993 19.1359V12.2573C74.5993 11.951 74.5993 11.6446 74.655 11.3383C74.6829 11.1712 74.7107 11.0041 74.7385 10.8092C75.2955 8.49774 77.1335 6.65973 79.4728 6.10276C79.4728 6.10276 79.5007 6.10276 79.5285 6.10276C79.9741 5.99136 80.4197 5.93566 80.8931 5.93566L92.6452 5.93566C93.1465 5.93566 93.6199 6.01921 94.0933 6.10276C96.4048 6.65973 98.2428 8.49774 98.7997 10.8092ZM81.3387 20.5562H92.1996C93.23 20.5562 94.0933 19.7207 94.0933 18.6903V12.7029C94.0933 11.6725 93.23 10.8092 92.1996 10.8092L81.3387 10.8092C80.3083 10.8092 79.4728 11.6725 79.4728 12.7029V18.6903C79.4728 19.7207 80.3083 20.5562 81.3387 20.5562ZM123.137 6.10276C125.922 6.77112 128.011 9.2775 128.011 12.2573V19.1359C128.011 19.6093 127.955 20.0828 127.844 20.5283C127.315 22.8955 125.477 24.7335 123.137 25.2904C122.859 25.3461 122.608 25.374 122.33 25.4018C122.135 25.4297 121.912 25.4297 121.689 25.4297H103.643V13.4548L108.517 13.4548V20.5562H121.244C122.274 20.5562 123.137 19.7207 123.137 18.6903V12.7029C123.137 11.6725 122.274 10.8092 121.244 10.8092L103.643 10.8092V5.93566L121.689 5.93566C122.19 5.93566 122.664 6.01921 123.137 6.10276ZM132.651 5.93566L157.019 5.93566V10.8092L137.525 10.8092V10.837H132.651V5.93566ZM132.651 13.6776L157.019 13.6776V17.6599L137.525 17.6599H132.651V13.6776ZM132.651 20.5562L157.019 20.5562V25.4297L132.651 25.4297V20.5562ZM171.286 10.113C170.2 11.3104 169.086 12.5079 167.972 13.7054L160.843 5.93566L167.471 5.93566L171.286 10.113ZM176.41 15.6827L185.378 25.4297H178.75L173.096 19.2751L167.415 25.4297H160.815L169.782 15.6827L173.096 12.0624L178.722 5.93566L185.322 5.93566L176.41 15.6827ZM209.25 18.1334L212.286 25.4297H207.022L203.987 18.1334L201.954 13.2598L200.951 10.8092H199.281L198.278 13.2598L196.245 18.1334L193.21 25.4297H187.946L190.982 18.1334L192.987 13.2598L193.989 10.8092L196.022 5.93566L199.475 5.93566H200.757L204.21 5.93566L206.215 10.8092L207.245 13.2598L209.25 18.1334Z" fill="white"/>
<path d="M94.5413 50V31.41H98.3113V36.61H106.215C107.741 36.61 108.85 36.9913 109.543 37.754C110.254 38.4993 110.609 39.4873 110.609 40.718V50H106.839V41.16C106.839 40.12 106.319 39.6 105.279 39.6H98.3113V50H94.5413ZM120.194 50.13C117.872 50.13 116.06 49.558 114.76 48.414C113.46 47.2527 112.81 45.554 112.81 43.318C112.81 41.0647 113.46 39.366 114.76 38.222C116.06 37.0607 117.872 36.48 120.194 36.48H125.004C127.327 36.48 129.138 37.0607 130.438 38.222C131.738 39.366 132.388 41.0647 132.388 43.318C132.388 45.554 131.738 47.2527 130.438 48.414C129.138 49.558 127.327 50.13 125.004 50.13H120.194ZM120.194 47.14H125.004C126.131 47.14 126.989 46.828 127.578 46.204C128.185 45.58 128.488 44.618 128.488 43.318C128.488 42.0007 128.185 41.03 127.578 40.406C126.989 39.782 126.131 39.47 125.004 39.47H120.194C119.068 39.47 118.201 39.782 117.594 40.406C117.005 41.03 116.71 42.0007 116.71 43.318C116.71 44.618 117.005 45.58 117.594 46.204C118.201 46.828 119.068 47.14 120.194 47.14ZM134.293 50.13V47.14H147.033C147.761 47.14 148.125 46.7327 148.125 45.918C148.125 45.1207 147.761 44.722 147.033 44.722H138.791C137.248 44.722 136.078 44.3753 135.281 43.682C134.483 42.9713 134.085 41.9573 134.085 40.64C134.085 39.3053 134.483 38.2827 135.281 37.572C136.095 36.844 137.265 36.48 138.791 36.48H150.647V39.47H138.973C138.227 39.47 137.855 39.834 137.855 40.562C137.855 40.926 137.959 41.212 138.167 41.42C138.375 41.628 138.643 41.732 138.973 41.732H147.709C149.061 41.732 150.092 42.0873 150.803 42.798C151.531 43.4913 151.895 44.5053 151.895 45.84C151.895 47.192 151.531 48.2493 150.803 49.012C150.075 49.7573 149.043 50.13 147.709 50.13H134.293ZM161.076 50C159.568 50 158.458 49.6273 157.748 48.882C157.037 48.1193 156.682 47.1227 156.682 45.892V39.6H152.808V36.61H156.682V32.502H160.452V36.61H166.016V39.6H160.452V45.424C160.452 46.4813 160.972 47.01 162.012 47.01H166.744V50H161.076ZM168.682 50V36.61H172.452V50H168.682ZM168.656 34.4V31.462H172.478V34.4H168.656ZM175.309 50V36.61H186.983C188.508 36.61 189.618 36.9913 190.311 37.754C191.022 38.4993 191.377 39.4873 191.377 40.718V50H187.607V41.16C187.607 40.12 187.087 39.6 186.047 39.6H179.079V50H175.309ZM197.27 55.85V52.86H205.122C206.162 52.86 206.682 52.3313 206.682 51.274V50H200.962C198.639 50 196.828 49.428 195.528 48.284C194.228 47.14 193.578 45.4847 193.578 43.318C193.578 41.134 194.228 39.47 195.528 38.326C196.828 37.182 198.639 36.61 200.962 36.61H210.452V51.742C210.452 52.9727 210.097 53.9607 209.386 54.706C208.675 55.4687 207.566 55.85 206.058 55.85H197.27ZM200.962 47.01H206.682V39.6H200.962C199.835 39.6 198.969 39.912 198.362 40.536C197.773 41.1427 197.478 42.07 197.478 43.318C197.478 44.5487 197.773 45.476 198.362 46.1C198.969 46.7067 199.835 47.01 200.962 47.01Z" fill="#EC008C"/>
</svg>
