<svg width="247" height="68" viewBox="0 0 247 68" fill="none" xmlns="http://www.w3.org/2000/svg">
<mask id="path-1-outside-1_3483_975" maskUnits="userSpaceOnUse" x="80" y="31" width="132" height="27" fill="black">
<rect fill="white" x="80" y="31" width="132" height="27"/>
<path d="M81.2456 51V32.41H85.4056V40.028H98.5096V32.41H102.67V51H98.5096V43.408H85.4056V51H81.2456ZM114.08 51.13C111.757 51.13 109.946 50.558 108.646 49.414C107.346 48.2527 106.696 46.554 106.696 44.318C106.696 42.0647 107.346 40.366 108.646 39.222C109.946 38.0607 111.757 37.48 114.08 37.48H118.89C121.213 37.48 123.024 38.0607 124.324 39.222C125.624 40.366 126.274 42.0647 126.274 44.318C126.274 46.554 125.624 48.2527 124.324 49.414C123.024 50.558 121.213 51.13 118.89 51.13H114.08ZM114.08 48.14H118.89C120.017 48.14 120.875 47.828 121.464 47.204C122.071 46.58 122.374 45.618 122.374 44.318C122.374 43.0007 122.071 42.03 121.464 41.406C120.875 40.782 120.017 40.47 118.89 40.47H114.08C112.953 40.47 112.087 40.782 111.48 41.406C110.891 42.03 110.596 43.0007 110.596 44.318C110.596 45.618 110.891 46.58 111.48 47.204C112.087 47.828 112.953 48.14 114.08 48.14ZM129.478 51.13V48.14H142.218C142.946 48.14 143.31 47.7327 143.31 46.918C143.31 46.1207 142.946 45.722 142.218 45.722H133.976C132.434 45.722 131.264 45.3753 130.466 44.682C129.669 43.9713 129.27 42.9573 129.27 41.64C129.27 40.3053 129.669 39.2827 130.466 38.572C131.281 37.844 132.451 37.48 133.976 37.48H145.832V40.47H134.158C133.413 40.47 133.04 40.834 133.04 41.562C133.04 41.926 133.144 42.212 133.352 42.42C133.56 42.628 133.829 42.732 134.158 42.732H142.894C144.246 42.732 145.278 43.0873 145.988 43.798C146.716 44.4913 147.08 45.5053 147.08 46.84C147.08 48.192 146.716 49.2493 145.988 50.012C145.26 50.7573 144.229 51.13 142.894 51.13H129.478ZM157.561 51C156.053 51 154.944 50.6273 154.233 49.882C153.523 49.1193 153.167 48.1227 153.167 46.892V40.6H149.293V37.61H153.167V33.502H156.937V37.61H162.501V40.6H156.937V46.424C156.937 47.4813 157.457 48.01 158.497 48.01H163.229V51H157.561ZM166.468 51V37.61H170.238V51H166.468ZM166.442 35.4V32.462H170.264V35.4H166.442ZM174.395 51V37.61H186.069C187.594 37.61 188.703 37.9913 189.397 38.754C190.107 39.4993 190.463 40.4873 190.463 41.718V51H186.693V42.16C186.693 41.12 186.173 40.6 185.133 40.6H178.165V51H174.395ZM197.656 56.85V53.86H205.508C206.548 53.86 207.068 53.3313 207.068 52.274V51H201.348C199.025 51 197.214 50.428 195.914 49.284C194.614 48.14 193.964 46.4847 193.964 44.318C193.964 42.134 194.614 40.47 195.914 39.326C197.214 38.182 199.025 37.61 201.348 37.61H210.838V52.742C210.838 53.9727 210.482 54.9607 209.772 55.706C209.061 56.4687 207.952 56.85 206.444 56.85H197.656ZM201.348 48.01H207.068V40.6H201.348C200.221 40.6 199.354 40.912 198.748 41.536C198.158 42.1427 197.864 43.07 197.864 44.318C197.864 45.5487 198.158 46.476 198.748 47.1C199.354 47.7067 200.221 48.01 201.348 48.01Z"/>
</mask>
<path d="M81.2456 51V32.41H85.4056V40.028H98.5096V32.41H102.67V51H98.5096V43.408H85.4056V51H81.2456ZM114.08 51.13C111.757 51.13 109.946 50.558 108.646 49.414C107.346 48.2527 106.696 46.554 106.696 44.318C106.696 42.0647 107.346 40.366 108.646 39.222C109.946 38.0607 111.757 37.48 114.08 37.48H118.89C121.213 37.48 123.024 38.0607 124.324 39.222C125.624 40.366 126.274 42.0647 126.274 44.318C126.274 46.554 125.624 48.2527 124.324 49.414C123.024 50.558 121.213 51.13 118.89 51.13H114.08ZM114.08 48.14H118.89C120.017 48.14 120.875 47.828 121.464 47.204C122.071 46.58 122.374 45.618 122.374 44.318C122.374 43.0007 122.071 42.03 121.464 41.406C120.875 40.782 120.017 40.47 118.89 40.47H114.08C112.953 40.47 112.087 40.782 111.48 41.406C110.891 42.03 110.596 43.0007 110.596 44.318C110.596 45.618 110.891 46.58 111.48 47.204C112.087 47.828 112.953 48.14 114.08 48.14ZM129.478 51.13V48.14H142.218C142.946 48.14 143.31 47.7327 143.31 46.918C143.31 46.1207 142.946 45.722 142.218 45.722H133.976C132.434 45.722 131.264 45.3753 130.466 44.682C129.669 43.9713 129.27 42.9573 129.27 41.64C129.27 40.3053 129.669 39.2827 130.466 38.572C131.281 37.844 132.451 37.48 133.976 37.48H145.832V40.47H134.158C133.413 40.47 133.04 40.834 133.04 41.562C133.04 41.926 133.144 42.212 133.352 42.42C133.56 42.628 133.829 42.732 134.158 42.732H142.894C144.246 42.732 145.278 43.0873 145.988 43.798C146.716 44.4913 147.08 45.5053 147.08 46.84C147.08 48.192 146.716 49.2493 145.988 50.012C145.26 50.7573 144.229 51.13 142.894 51.13H129.478ZM157.561 51C156.053 51 154.944 50.6273 154.233 49.882C153.523 49.1193 153.167 48.1227 153.167 46.892V40.6H149.293V37.61H153.167V33.502H156.937V37.61H162.501V40.6H156.937V46.424C156.937 47.4813 157.457 48.01 158.497 48.01H163.229V51H157.561ZM166.468 51V37.61H170.238V51H166.468ZM166.442 35.4V32.462H170.264V35.4H166.442ZM174.395 51V37.61H186.069C187.594 37.61 188.703 37.9913 189.397 38.754C190.107 39.4993 190.463 40.4873 190.463 41.718V51H186.693V42.16C186.693 41.12 186.173 40.6 185.133 40.6H178.165V51H174.395ZM197.656 56.85V53.86H205.508C206.548 53.86 207.068 53.3313 207.068 52.274V51H201.348C199.025 51 197.214 50.428 195.914 49.284C194.614 48.14 193.964 46.4847 193.964 44.318C193.964 42.134 194.614 40.47 195.914 39.326C197.214 38.182 199.025 37.61 201.348 37.61H210.838V52.742C210.838 53.9727 210.482 54.9607 209.772 55.706C209.061 56.4687 207.952 56.85 206.444 56.85H197.656ZM201.348 48.01H207.068V40.6H201.348C200.221 40.6 199.354 40.912 198.748 41.536C198.158 42.1427 197.864 43.07 197.864 44.318C197.864 45.5487 198.158 46.476 198.748 47.1C199.354 47.7067 200.221 48.01 201.348 48.01Z" fill="#EC008C"/>
<path d="M81.2456 51H80.7456V51.5H81.2456V51ZM81.2456 32.41V31.91H80.7456V32.41H81.2456ZM85.4056 32.41H85.9056V31.91H85.4056V32.41ZM85.4056 40.028H84.9056V40.528H85.4056V40.028ZM98.5096 40.028V40.528H99.0096V40.028H98.5096ZM98.5096 32.41V31.91H98.0096V32.41H98.5096ZM102.67 32.41H103.17V31.91H102.67V32.41ZM102.67 51V51.5H103.17V51H102.67ZM98.5096 51H98.0096V51.5H98.5096V51ZM98.5096 43.408H99.0096V42.908H98.5096V43.408ZM85.4056 43.408V42.908H84.9056V43.408H85.4056ZM85.4056 51V51.5H85.9056V51H85.4056ZM81.7456 51V32.41H80.7456V51H81.7456ZM81.2456 32.91H85.4056V31.91H81.2456V32.91ZM84.9056 32.41V40.028H85.9056V32.41H84.9056ZM85.4056 40.528H98.5096V39.528H85.4056V40.528ZM99.0096 40.028V32.41H98.0096V40.028H99.0096ZM98.5096 32.91H102.67V31.91H98.5096V32.91ZM102.17 32.41V51H103.17V32.41H102.17ZM102.67 50.5H98.5096V51.5H102.67V50.5ZM99.0096 51V43.408H98.0096V51H99.0096ZM98.5096 42.908H85.4056V43.908H98.5096V42.908ZM84.9056 43.408V51H85.9056V43.408H84.9056ZM85.4056 50.5H81.2456V51.5H85.4056V50.5ZM108.646 49.414L108.313 49.7869L108.316 49.7894L108.646 49.414ZM108.646 39.222L108.976 39.5974L108.979 39.5949L108.646 39.222ZM124.324 39.222L123.991 39.5949L123.994 39.5974L124.324 39.222ZM124.324 49.414L124.654 49.7894L124.657 49.7869L124.324 49.414ZM121.464 47.204L121.106 46.8554L121.101 46.8607L121.464 47.204ZM121.464 41.406L121.101 41.7493L121.106 41.7545L121.464 41.406ZM111.48 41.406L111.122 41.0574L111.117 41.0627L111.48 41.406ZM111.48 47.204L111.117 47.5473L111.122 47.5525L111.48 47.204ZM114.08 50.63C111.837 50.63 110.158 50.0783 108.976 49.0386L108.316 49.7894C109.734 51.0377 111.678 51.63 114.08 51.63V50.63ZM108.979 49.0411C107.814 47.9999 107.196 46.4545 107.196 44.318H106.196C106.196 46.6535 106.879 48.5054 108.313 49.7869L108.979 49.0411ZM107.196 44.318C107.196 42.1623 107.815 40.6197 108.976 39.5974L108.316 38.8466C106.878 40.1123 106.196 41.967 106.196 44.318H107.196ZM108.979 39.5949C110.161 38.5394 111.839 37.98 114.08 37.98V36.98C111.676 36.98 109.732 37.5819 108.313 38.8491L108.979 39.5949ZM114.08 37.98H118.89V36.98H114.08V37.98ZM118.89 37.98C121.131 37.98 122.81 38.5394 123.991 39.5949L124.657 38.8491C123.239 37.5819 121.294 36.98 118.89 36.98V37.98ZM123.994 39.5974C125.156 40.6197 125.774 42.1623 125.774 44.318H126.774C126.774 41.967 126.093 40.1123 124.654 38.8466L123.994 39.5974ZM125.774 44.318C125.774 46.4545 125.157 47.9999 123.991 49.0411L124.657 49.7869C126.092 48.5054 126.774 46.6535 126.774 44.318H125.774ZM123.994 49.0386C122.812 50.0783 121.133 50.63 118.89 50.63V51.63C121.292 51.63 123.236 51.0377 124.654 49.7894L123.994 49.0386ZM118.89 50.63H114.08V51.63H118.89V50.63ZM114.08 48.64H118.89V47.64H114.08V48.64ZM118.89 48.64C120.109 48.64 121.117 48.3 121.828 47.5473L121.101 46.8607C120.633 47.356 119.924 47.64 118.89 47.64V48.64ZM121.823 47.5525C122.556 46.798 122.874 45.6848 122.874 44.318H121.874C121.874 45.5512 121.585 46.362 121.106 46.8555L121.823 47.5525ZM122.874 44.318C122.874 42.9361 122.557 41.8131 121.823 41.0575L121.106 41.7545C121.584 42.2469 121.874 43.0653 121.874 44.318H122.874ZM121.828 41.0627C121.117 40.31 120.109 39.97 118.89 39.97V40.97C119.924 40.97 120.633 41.254 121.101 41.7493L121.828 41.0627ZM118.89 39.97H114.08V40.97H118.89V39.97ZM114.08 39.97C112.86 39.97 111.848 40.3103 111.122 41.0575L111.839 41.7545C112.326 41.2537 113.047 40.97 114.08 40.97V39.97ZM111.117 41.0627C110.403 41.8185 110.096 42.9393 110.096 44.318H111.096C111.096 43.062 111.379 42.2415 111.844 41.7493L111.117 41.0627ZM110.096 44.318C110.096 45.6815 110.404 46.7925 111.117 47.5473L111.844 46.8607C111.378 46.3675 111.096 45.5545 111.096 44.318H110.096ZM111.122 47.5525C111.848 48.2997 112.86 48.64 114.08 48.64V47.64C113.047 47.64 112.326 47.3563 111.839 46.8555L111.122 47.5525ZM129.478 51.13H128.978V51.63H129.478V51.13ZM129.478 48.14V47.64H128.978V48.14H129.478ZM130.466 44.682L130.134 45.0553L130.138 45.0593L130.466 44.682ZM130.466 38.572L130.799 38.9453L130.8 38.9448L130.466 38.572ZM145.832 37.48H146.332V36.98H145.832V37.48ZM145.832 40.47V40.97H146.332V40.47H145.832ZM133.352 42.42L132.999 42.7736L133.352 42.42ZM145.988 43.798L145.635 44.1517L145.644 44.1601L145.988 43.798ZM145.988 50.012L146.346 50.3614L146.35 50.3572L145.988 50.012ZM129.978 51.13V48.14H128.978V51.13H129.978ZM129.478 48.64H142.218V47.64H129.478V48.64ZM142.218 48.64C142.675 48.64 143.105 48.5097 143.41 48.1677C143.706 47.8363 143.81 47.3894 143.81 46.918H142.81C142.81 47.2613 142.733 47.4253 142.665 47.5013C142.606 47.5666 142.49 47.64 142.218 47.64V48.64ZM143.81 46.918C143.81 46.453 143.705 46.0109 143.407 45.6839C143.1 45.3482 142.672 45.222 142.218 45.222V46.222C142.493 46.222 142.611 46.2951 142.668 46.3581C142.734 46.4298 142.81 46.5857 142.81 46.918H143.81ZM142.218 45.222H133.976V46.222H142.218V45.222ZM133.976 45.222C132.5 45.222 131.467 44.8894 130.795 44.3047L130.138 45.0593C131.061 45.8613 132.367 46.222 133.976 46.222V45.222ZM130.799 44.3087C130.132 43.7145 129.77 42.8507 129.77 41.64H128.77C128.77 43.0639 129.206 44.2282 130.134 45.0553L130.799 44.3087ZM129.77 41.64C129.77 40.4096 130.134 39.5382 130.799 38.9453L130.134 38.1987C129.204 39.0271 128.77 40.2011 128.77 41.64H129.77ZM130.8 38.9448C131.492 38.3262 132.525 37.98 133.976 37.98V36.98C132.377 36.98 131.07 37.3618 130.133 38.1992L130.8 38.9448ZM133.976 37.98H145.832V36.98H133.976V37.98ZM145.332 37.48V40.47H146.332V37.48H145.332ZM145.832 39.97H134.158V40.97H145.832V39.97ZM134.158 39.97C133.712 39.97 133.284 40.0791 132.971 40.3853C132.655 40.6937 132.54 41.1179 132.54 41.562H133.54C133.54 41.2781 133.612 41.1563 133.669 41.1007C133.728 41.0429 133.86 40.97 134.158 40.97V39.97ZM132.54 41.562C132.54 42.0252 132.676 42.4506 132.999 42.7736L133.706 42.0664C133.613 41.9734 133.54 41.8268 133.54 41.562H132.54ZM132.999 42.7736C133.312 43.0869 133.714 43.232 134.158 43.232V42.232C133.944 42.232 133.809 42.1691 133.706 42.0664L132.999 42.7736ZM134.158 43.232H142.894V42.232H134.158V43.232ZM142.894 43.232C144.161 43.232 145.047 43.5634 145.635 44.1516L146.342 43.4444C145.509 42.6112 144.332 42.232 142.894 42.232V43.232ZM145.644 44.1601C146.243 44.731 146.58 45.5954 146.58 46.84H147.58C147.58 45.4152 147.19 44.2516 146.333 43.4359L145.644 44.1601ZM146.58 46.84C146.58 48.1012 146.243 49.0212 145.627 49.6668L146.35 50.3572C147.19 49.4774 147.58 48.2828 147.58 46.84H146.58ZM145.631 49.6626C145.021 50.2865 144.134 50.63 142.894 50.63V51.63C144.324 51.63 145.499 51.2282 146.346 50.3614L145.631 49.6626ZM142.894 50.63H129.478V51.63H142.894V50.63ZM154.233 49.882L153.868 50.2229L153.872 50.227L154.233 49.882ZM153.167 40.6H153.667V40.1H153.167V40.6ZM149.293 40.6H148.793V41.1H149.293V40.6ZM149.293 37.61V37.11H148.793V37.61H149.293ZM153.167 37.61V38.11H153.667V37.61H153.167ZM153.167 33.502V33.002H152.667V33.502H153.167ZM156.937 33.502H157.437V33.002H156.937V33.502ZM156.937 37.61H156.437V38.11H156.937V37.61ZM162.501 37.61H163.001V37.11H162.501V37.61ZM162.501 40.6V41.1H163.001V40.6H162.501ZM156.937 40.6V40.1H156.437V40.6H156.937ZM163.229 48.01H163.729V47.51H163.229V48.01ZM163.229 51V51.5H163.729V51H163.229ZM157.561 50.5C156.126 50.5 155.175 50.1451 154.595 49.537L153.872 50.227C154.713 51.1096 155.981 51.5 157.561 51.5V50.5ZM154.599 49.5411C153.99 48.8874 153.667 48.0205 153.667 46.892H152.667C152.667 48.2249 153.056 49.3513 153.868 50.2229L154.599 49.5411ZM153.667 46.892V40.6H152.667V46.892H153.667ZM153.167 40.1H149.293V41.1H153.167V40.1ZM149.793 40.6V37.61H148.793V40.6H149.793ZM149.293 38.11H153.167V37.11H149.293V38.11ZM153.667 37.61V33.502H152.667V37.61H153.667ZM153.167 34.002H156.937V33.002H153.167V34.002ZM156.437 33.502V37.61H157.437V33.502H156.437ZM156.937 38.11H162.501V37.11H156.937V38.11ZM162.001 37.61V40.6H163.001V37.61H162.001ZM162.501 40.1H156.937V41.1H162.501V40.1ZM156.437 40.6V46.424H157.437V40.6H156.437ZM156.437 46.424C156.437 47.0277 156.586 47.5727 156.971 47.9641C157.358 48.3571 157.898 48.51 158.497 48.51V47.51C158.057 47.51 157.817 47.3986 157.684 47.2629C157.549 47.1257 157.437 46.8777 157.437 46.424H156.437ZM158.497 48.51H163.229V47.51H158.497V48.51ZM162.729 48.01V51H163.729V48.01H162.729ZM163.229 50.5H157.561V51.5H163.229V50.5ZM166.468 51H165.968V51.5H166.468V51ZM166.468 37.61V37.11H165.968V37.61H166.468ZM170.238 37.61H170.738V37.11H170.238V37.61ZM170.238 51V51.5H170.738V51H170.238ZM166.442 35.4H165.942V35.9H166.442V35.4ZM166.442 32.462V31.962H165.942V32.462H166.442ZM170.264 32.462H170.764V31.962H170.264V32.462ZM170.264 35.4V35.9H170.764V35.4H170.264ZM166.968 51V37.61H165.968V51H166.968ZM166.468 38.11H170.238V37.11H166.468V38.11ZM169.738 37.61V51H170.738V37.61H169.738ZM170.238 50.5H166.468V51.5H170.238V50.5ZM166.942 35.4V32.462H165.942V35.4H166.942ZM166.442 32.962H170.264V31.962H166.442V32.962ZM169.764 32.462V35.4H170.764V32.462H169.764ZM170.264 34.9H166.442V35.9H170.264V34.9ZM174.395 51H173.895V51.5H174.395V51ZM174.395 37.61V37.11H173.895V37.61H174.395ZM189.397 38.754L189.027 39.0904L189.035 39.099L189.397 38.754ZM190.463 51V51.5H190.963V51H190.463ZM186.693 51H186.193V51.5H186.693V51ZM178.165 40.6V40.1H177.665V40.6H178.165ZM178.165 51V51.5H178.665V51H178.165ZM174.895 51V37.61H173.895V51H174.895ZM174.395 38.11H186.069V37.11H174.395V38.11ZM186.069 38.11C187.521 38.11 188.466 38.4735 189.027 39.0903L189.767 38.4177C188.941 37.5092 187.667 37.11 186.069 37.11V38.11ZM189.035 39.099C189.64 39.7337 189.963 40.5892 189.963 41.718H190.963C190.963 40.3855 190.575 39.2649 189.759 38.409L189.035 39.099ZM189.963 41.718V51H190.963V41.718H189.963ZM190.463 50.5H186.693V51.5H190.463V50.5ZM187.193 51V42.16H186.193V51H187.193ZM187.193 42.16C187.193 41.5629 187.043 41.0233 186.656 40.6364C186.269 40.2496 185.73 40.1 185.133 40.1V41.1C185.576 41.1 185.816 41.2104 185.949 41.3436C186.082 41.4767 186.193 41.7171 186.193 42.16H187.193ZM185.133 40.1H178.165V41.1H185.133V40.1ZM177.665 40.6V51H178.665V40.6H177.665ZM178.165 50.5H174.395V51.5H178.165V50.5ZM197.656 56.85H197.156V57.35H197.656V56.85ZM197.656 53.86V53.36H197.156V53.86H197.656ZM207.068 51H207.568V50.5H207.068V51ZM195.914 49.284L196.244 48.9086L195.914 49.284ZM195.914 39.326L196.244 39.7014V39.7014L195.914 39.326ZM210.838 37.61H211.338V37.11H210.838V37.61ZM209.772 55.706L209.41 55.3609L209.406 55.3651L209.772 55.706ZM207.068 48.01V48.51H207.568V48.01H207.068ZM207.068 40.6H207.568V40.1H207.068V40.6ZM198.748 41.536L198.389 41.1875L198.389 41.1876L198.748 41.536ZM198.748 47.1L198.384 47.4433L198.389 47.4485L198.394 47.4536L198.748 47.1ZM198.156 56.85V53.86H197.156V56.85H198.156ZM197.656 54.36H205.508V53.36H197.656V54.36ZM205.508 54.36C206.107 54.36 206.648 54.2071 207.034 53.8141C207.419 53.4227 207.568 52.8777 207.568 52.274H206.568C206.568 52.7277 206.456 52.9757 206.321 53.1129C206.188 53.2486 205.949 53.36 205.508 53.36V54.36ZM207.568 52.274V51H206.568V52.274H207.568ZM207.068 50.5H201.348V51.5H207.068V50.5ZM201.348 50.5C199.105 50.5 197.426 49.9483 196.244 48.9086L195.583 49.6594C197.002 50.9077 198.945 51.5 201.348 51.5V50.5ZM196.244 48.9086C195.078 47.8826 194.464 46.3799 194.464 44.318H193.464C193.464 46.5894 194.149 48.3974 195.583 49.6594L196.244 48.9086ZM194.464 44.318C194.464 42.2373 195.079 40.7267 196.244 39.7014L195.583 38.9506C194.149 40.2133 193.464 42.0307 193.464 44.318H194.464ZM196.244 39.7014C197.426 38.6617 199.105 38.11 201.348 38.11V37.11C198.945 37.11 197.002 37.7023 195.583 38.9506L196.244 39.7014ZM201.348 38.11H210.838V37.11H201.348V38.11ZM210.338 37.61V52.742H211.338V37.61H210.338ZM210.338 52.742C210.338 53.8708 210.015 54.7263 209.41 55.361L210.134 56.051C210.95 55.1951 211.338 54.0745 211.338 52.742H210.338ZM209.406 55.3651C208.825 55.988 207.876 56.35 206.444 56.35V57.35C208.028 57.35 209.297 56.9493 210.138 56.0469L209.406 55.3651ZM206.444 56.35H197.656V57.35H206.444V56.35ZM201.348 48.51H207.068V47.51H201.348V48.51ZM207.568 48.01V40.6H206.568V48.01H207.568ZM207.068 40.1H201.348V41.1H207.068V40.1ZM201.348 40.1C200.128 40.1 199.116 40.4403 198.389 41.1875L199.106 41.8845C199.593 41.3837 200.314 41.1 201.348 41.1V40.1ZM198.389 41.1876C197.674 41.9238 197.364 43.0012 197.364 44.318H198.364C198.364 43.1388 198.643 42.3615 199.106 41.8844L198.389 41.1876ZM197.364 44.318C197.364 45.6211 197.675 46.6929 198.384 47.4433L199.111 46.7567C198.641 46.2591 198.364 45.4762 198.364 44.318H197.364ZM198.394 47.4536C199.121 48.1806 200.132 48.51 201.348 48.51V47.51C200.311 47.51 199.588 47.2327 199.101 46.7464L198.394 47.4536Z" fill="#EC008C" mask="url(#path-1-outside-1_3483_975)"/>
<path d="M26.7734 0.653542L32.9807 4.27746C34.8826 5.38889 36.0471 7.38674 36.0471 9.54309V22.624C36.0471 24.2168 35.1747 25.6903 33.7544 26.4925L27.0252 30.3375C24.8574 31.5605 22.0812 30.7915 20.7776 28.7115L8.86671 8.32403L8.92917 30.6252L2.67553 27.0952C1.01541 26.1168 0 24.3675 0 22.4812V8.42578C0 6.82711 0.882441 5.35367 2.31288 4.56314L9.65849 0.500915C11.5201 -0.52834 13.8853 0.0782551 14.9813 1.86477L26.848 22.804L26.7714 0.655499L26.7734 0.653542Z" fill="#EC008C"/>
<path d="M65.0664 6.93566H69.9399V26.4297H64.036L50.4459 12.8396V26.4297H45.5724V6.93566L51.4206 6.93566L65.0664 20.5815V6.93566ZM98.7997 11.8092C98.8833 12.2826 98.9668 12.756 98.9668 13.2573V20.1359C98.9668 20.6093 98.9111 21.0828 98.7997 21.5283C98.7997 21.5562 98.7997 21.5562 98.7997 21.5562C98.2428 23.8955 96.4048 25.7335 94.0933 26.2904C93.8148 26.3461 93.5642 26.374 93.2857 26.4018C93.0908 26.4297 92.868 26.4297 92.6452 26.4297H80.8931C80.6703 26.4297 80.4475 26.4297 80.2526 26.4018C79.9741 26.374 79.7234 26.3461 79.4728 26.2904C77.1335 25.7335 75.2955 23.8955 74.7385 21.5562C74.7107 21.3891 74.6829 21.222 74.655 21.0549C74.5993 20.7486 74.5993 20.4422 74.5993 20.1359V13.2573C74.5993 12.951 74.5993 12.6446 74.655 12.3383C74.6829 12.1712 74.7107 12.0041 74.7385 11.8092C75.2955 9.49774 77.1335 7.65973 79.4728 7.10276C79.4728 7.10276 79.5007 7.10276 79.5285 7.10276C79.9741 6.99136 80.4197 6.93566 80.8931 6.93566L92.6452 6.93566C93.1465 6.93566 93.6199 7.01921 94.0933 7.10276C96.4048 7.65973 98.2428 9.49774 98.7997 11.8092ZM81.3387 21.5562H92.1996C93.23 21.5562 94.0933 20.7207 94.0933 19.6903V13.7029C94.0933 12.6725 93.23 11.8092 92.1996 11.8092L81.3387 11.8092C80.3083 11.8092 79.4728 12.6725 79.4728 13.7029V19.6903C79.4728 20.7207 80.3083 21.5562 81.3387 21.5562ZM123.137 7.10276C125.922 7.77112 128.011 10.2775 128.011 13.2573V20.1359C128.011 20.6093 127.955 21.0828 127.844 21.5283C127.315 23.8955 125.477 25.7335 123.137 26.2904C122.859 26.3461 122.608 26.374 122.33 26.4018C122.135 26.4297 121.912 26.4297 121.689 26.4297H103.643V14.4548L108.517 14.4548V21.5562H121.244C122.274 21.5562 123.137 20.7207 123.137 19.6903V13.7029C123.137 12.6725 122.274 11.8092 121.244 11.8092L103.643 11.8092V6.93566L121.689 6.93566C122.19 6.93566 122.664 7.01921 123.137 7.10276ZM132.651 6.93566L157.019 6.93566V11.8092L137.525 11.8092V11.837H132.651V6.93566ZM132.651 14.6776L157.019 14.6776V18.6599L137.525 18.6599H132.651V14.6776ZM132.651 21.5562L157.019 21.5562V26.4297L132.651 26.4297V21.5562ZM171.286 11.113C170.2 12.3104 169.086 13.5079 167.972 14.7054L160.843 6.93566L167.471 6.93566L171.286 11.113ZM176.41 16.6827L185.378 26.4297H178.75L173.096 20.2751L167.415 26.4297H160.815L169.782 16.6827L173.096 13.0624L178.722 6.93566L185.322 6.93566L176.41 16.6827ZM209.25 19.1334L212.286 26.4297H207.022L203.987 19.1334L201.954 14.2598L200.951 11.8092H199.281L198.278 14.2598L196.245 19.1334L193.21 26.4297H187.946L190.982 19.1334L192.987 14.2598L193.989 11.8092L196.022 6.93566L199.475 6.93566H200.757L204.21 6.93566L206.215 11.8092L207.245 14.2598L209.25 19.1334Z" fill="white"/>
</svg>
