<svg width="45" height="45" viewBox="0 0 45 45" fill="none" xmlns="http://www.w3.org/2000/svg">
<path d="M29.2978 20.9807C29.9154 26.6942 32.3443 28.4215 32.3443 28.4215H13.2109C13.2109 28.4215 16.3998 26.1542 16.3998 18.217C16.3998 16.4132 17.0716 14.6827 18.2675 13.4071C19.4633 12.1316 21.0875 11.4141 22.7776 11.4141C23.1369 11.4141 23.4912 11.446 23.8406 11.5097M24.6165 31.6104C24.4296 31.9325 24.1614 32.1999 23.8387 32.3858C23.5159 32.5717 23.15 32.6696 22.7776 32.6696C22.4052 32.6696 22.0393 32.5717 21.7165 32.3858C21.3938 32.1999 21.1256 31.9325 20.9387 31.6104M30.2183 17.7918C31.0641 17.7918 31.8752 17.4559 32.4732 16.8578C33.0713 16.2598 33.4072 15.4487 33.4072 14.603C33.4072 13.7572 33.0713 12.9461 32.4732 12.3481C31.8752 11.75 31.0641 11.4141 30.2183 11.4141C29.3726 11.4141 28.5615 11.75 27.9635 12.3481C27.3654 12.9461 27.0295 13.7572 27.0295 14.603C27.0295 15.4487 27.3654 16.2598 27.9635 16.8578C28.5615 17.4559 29.3726 17.7918 30.2183 17.7918Z" stroke="white" stroke-width="1.59444" stroke-linecap="round" stroke-linejoin="round"/>
<path d="M22.6423 1.39628L22.3222 1.22655L22.0021 1.39628L2.67051 11.6463L2.30728 11.8389V12.25V32.75V33.1611L2.67051 33.3537L22.0021 43.6037L22.3222 43.7734L22.6423 43.6037L41.9739 33.3537L42.3372 33.1611V32.75V12.25V11.8389L41.9739 11.6463L22.6423 1.39628Z" stroke="url(#paint0_linear_1252_2277)" stroke-width="1.36667"/>
<defs>
<linearGradient id="paint0_linear_1252_2277" x1="-3.36057e-07" y1="31.4981" x2="46.1995" y2="19.4792" gradientUnits="userSpaceOnUse">
<stop stop-color="#00AEB9"/>
<stop offset="1" stop-color="#EC008C"/>
</linearGradient>
</defs>
</svg>
