<svg width="45" height="45" viewBox="0 0 45 45" fill="none" xmlns="http://www.w3.org/2000/svg">
<path d="M22.6423 1.39628L22.3222 1.22655L22.0021 1.39628L2.67051 11.6463L2.30728 11.8389V12.25V32.75V33.1611L2.67051 33.3537L22.0021 43.6037L22.3222 43.7734L22.6423 43.6037L41.9739 33.3537L42.3372 33.1611V32.75V12.25V11.8389L41.9739 11.6463L22.6423 1.39628Z" stroke="url(#paint0_linear_4435_2284)" stroke-width="1.36667"/>
<circle cx="30.0439" cy="15.4677" r="2.73333" fill="#EC008C"/>
<path d="M29.2763 21.6917C29.8939 27.4051 32.3228 29.1324 32.3228 29.1324H13.1895C13.1895 29.1324 16.3783 26.8651 16.3783 18.928C16.3783 17.1241 17.0501 15.3936 18.246 14.1181C19.4418 12.8425 21.066 12.125 22.7561 12.125C23.1154 12.125 23.4697 12.1569 23.8191 12.2207M24.595 32.3213C24.4082 32.6435 24.1399 32.9109 23.8172 33.0968C23.4945 33.2827 23.1286 33.3805 22.7561 33.3805C22.3837 33.3805 22.0178 33.2827 21.695 33.0968C21.3723 32.9109 21.1041 32.6435 20.9172 32.3213M30.1969 18.5028C31.0426 18.5028 31.8537 18.1668 32.4517 17.5688C33.0498 16.9707 33.3857 16.1596 33.3857 15.3139C33.3857 14.4681 33.0498 13.657 32.4517 13.059C31.8537 12.461 31.0426 12.125 30.1969 12.125C29.3511 12.125 28.54 12.461 27.942 13.059C27.3439 13.657 27.008 14.4681 27.008 15.3139C27.008 16.1596 27.3439 16.9707 27.942 17.5688C28.54 18.1668 29.3511 18.5028 30.1969 18.5028Z" stroke="white" stroke-width="1.59444" stroke-linecap="round" stroke-linejoin="round"/>
<defs>
<linearGradient id="paint0_linear_4435_2284" x1="-3.36057e-07" y1="31.4981" x2="46.1995" y2="19.4792" gradientUnits="userSpaceOnUse">
<stop stop-color="#00AEB9"/>
<stop offset="1" stop-color="#EC008C"/>
</linearGradient>
</defs>
</svg>
