<svg width="44" height="45" viewBox="0 0 44 45" fill="none" xmlns="http://www.w3.org/2000/svg">
<path d="M21.9646 39.6449C12.2765 39.6449 4.3898 31.7582 4.3898 22.0701C4.3898 12.382 12.2765 4.49526 21.9646 4.49526C31.6527 4.49526 39.5394 12.382 39.5394 22.0701C39.5394 31.7582 31.6527 39.6449 21.9646 39.6449ZM21.9646 0.101562C9.81602 0.101562 -0.00390625 9.92148 -0.00390625 22.0701C-0.00390625 34.2187 9.81602 44.0386 21.9646 44.0386C34.1132 44.0386 43.9331 34.2187 43.9331 22.0701C43.9331 9.92148 34.1132 0.101562 21.9646 0.101562ZM27.6544 13.2827L21.9646 18.9725L16.2748 13.2827L13.1772 16.3802L18.867 22.0701L13.1772 27.7599L16.2748 30.8575L21.9646 25.1676L27.6544 30.8575L30.752 27.7599L25.0622 22.0701L30.752 16.3802L27.6544 13.2827Z" fill="#1EC0CA"/>
</svg>
