<svg width="25" height="24" viewBox="0 0 25 24" fill="none" xmlns="http://www.w3.org/2000/svg">
<path d="M5.25781 15H4.25781C3.72738 15 3.21867 14.7893 2.8436 14.4142C2.46853 14.0391 2.25781 13.5304 2.25781 13V4C2.25781 3.46957 2.46853 2.96086 2.8436 2.58579C3.21867 2.21071 3.72738 2 4.25781 2H13.2578C13.7882 2 14.297 2.21071 14.672 2.58579C15.0471 2.96086 15.2578 3.46957 15.2578 4V5M11.2578 9H20.2578C21.3624 9 22.2578 9.89543 22.2578 11V20C22.2578 21.1046 21.3624 22 20.2578 22H11.2578C10.1532 22 9.25781 21.1046 9.25781 20V11C9.25781 9.89543 10.1532 9 11.2578 9Z" stroke="white" stroke-linecap="round" stroke-linejoin="round"/>
</svg>
