<svg width="24" height="18" viewBox="0 0 24 18" fill="none" xmlns="http://www.w3.org/2000/svg">
<path d="M21.4146 0.859375H3.13981C2.53595 0.862108 1.95785 1.08116 1.53192 1.46864C1.10599 1.85612 0.866883 2.38049 0.86689 2.9271L0.855469 15.3335C0.857276 15.8814 1.09853 16.4063 1.52654 16.7938C1.95454 17.1812 2.53452 17.3995 3.13981 17.4012H21.4146C22.0199 17.3995 22.5999 17.1812 23.0279 16.7938C23.4559 16.4063 23.6971 15.8814 23.6989 15.3335V2.9271C23.6971 2.37921 23.4559 1.85423 23.0279 1.46681C22.5999 1.07939 22.0199 0.861011 21.4146 0.859375ZM21.4146 4.99483L12.2772 10.1641L3.13981 4.99483V2.9271L12.2772 8.09642L21.4146 2.9271V4.99483Z" fill="#00AEB9"/>
</svg>
