<svg width="19" height="24" viewBox="0 0 19 24" fill="none" xmlns="http://www.w3.org/2000/svg">
<path d="M16.6332 8.29246H15.2085V5.61059C15.2133 4.88667 15.0706 4.16892 14.7886 3.49832C14.5065 2.82772 14.0907 2.21741 13.5648 1.70223C13.0389 1.18705 12.4132 0.777098 11.7235 0.495772C11.0338 0.214446 10.2935 0.0672585 9.54493 0.0626135C8.79638 0.0579685 8.05422 0.195957 7.36081 0.4687C6.6674 0.741443 6.03633 1.1436 5.50363 1.65221C4.97093 2.16082 4.54704 2.76592 4.25614 3.43296C3.96525 4.1 3.81305 4.81593 3.80825 5.53985V8.29668H2.3824C1.754 8.29863 1.15184 8.54062 0.707073 8.96996C0.262311 9.3993 0.0109773 9.98121 0.0078125 10.5889V21.6142C0.00953984 22.2228 0.260239 22.8061 0.705156 23.2365C1.15007 23.667 1.75305 23.9097 2.3824 23.9117H16.6332C17.2624 23.9097 17.8652 23.6672 18.3101 23.2369C18.755 22.8067 19.0058 22.2237 19.0078 21.6152V10.5889C19.0058 9.98048 18.755 9.39749 18.3101 8.96724C17.8652 8.53699 17.2624 8.29441 16.6332 8.29246ZM10.3392 15.4585V19.4095C10.3406 19.6185 10.2598 19.8201 10.1133 19.9736C9.96672 20.1271 9.76531 20.221 9.54984 20.2363C9.43725 20.2417 9.32468 20.225 9.21898 20.187C9.11328 20.1491 9.01666 20.0908 8.93497 20.0157C8.85329 19.9405 8.78825 19.8501 8.74381 19.7499C8.69936 19.6497 8.67644 19.5418 8.67643 19.4328V15.4585C8.29009 15.2767 7.97891 14.9735 7.79369 14.5986C7.60848 14.2236 7.56017 13.799 7.65666 13.3941C7.75314 12.9892 7.98872 12.6278 8.32494 12.3691C8.66115 12.1103 9.07814 11.9694 9.50781 11.9694C9.93749 11.9694 10.3545 12.1103 10.6907 12.3691C11.0269 12.6278 11.2625 12.9892 11.359 13.3941C11.4555 13.799 11.4071 14.2236 11.2219 14.5986C11.0367 14.9735 10.7255 15.2767 10.3392 15.4585ZM13.5457 8.29246H5.46664V5.53985C5.46664 4.50374 5.89223 3.51007 6.64979 2.77743C7.40735 2.04479 8.43482 1.6332 9.50617 1.6332C10.5775 1.6332 11.605 2.04479 12.3626 2.77743C13.1201 3.51007 13.5457 4.50374 13.5457 5.53985V8.29246Z" fill="#00AEB9"/>
</svg>
