<svg width="25" height="21" viewBox="0 0 25 21" fill="none" xmlns="http://www.w3.org/2000/svg">
<path d="M12.1685 4.62238C13.6016 4.61791 14.9779 5.16994 15.9951 6.15724C17.0124 7.14453 17.5874 8.48636 17.594 9.88802C17.5942 10.5489 17.4622 11.2034 17.2054 11.8147L20.3733 14.888C22.0241 13.5541 23.3042 11.8343 24.0951 9.88802C22.8595 6.86883 20.4755 4.43561 17.4441 3.09967C14.4127 1.76373 10.9699 1.62908 7.83906 2.72402L10.1825 5.00247C10.8139 4.75376 11.4878 4.62477 12.1685 4.62238ZM1.32183 1.75279L3.79733 4.15304L4.29758 4.63708C2.48384 5.99656 1.07986 7.81059 0.234375 9.88697C1.50214 12.9759 3.96927 15.4478 7.09589 16.7619C10.2225 18.076 13.754 18.1252 16.9177 16.8987L17.376 17.3418L20.5547 20.4141L21.9341 19.0753L2.69591 0.414062L1.32183 1.75279ZM7.31734 7.57072L8.99951 9.20134C8.94444 9.42488 8.91599 9.65389 8.91471 9.88382C8.91611 10.3001 9.00143 10.7121 9.16577 11.0961C9.33012 11.4801 9.57027 11.8287 9.87248 12.1218C10.1747 12.415 10.533 12.647 10.927 12.8045C11.321 12.9621 11.7429 13.0421 12.1685 13.0401C12.4054 13.0391 12.6413 13.0113 12.8716 12.9571L14.5538 14.5888C13.7319 14.9908 12.8187 15.1809 11.9007 15.1412C10.9827 15.1014 10.0903 14.8331 9.30796 14.3616C8.52564 13.8901 7.87934 13.2311 7.43029 12.4469C6.98124 11.6628 6.74431 10.7794 6.74194 9.88067C6.74871 9.07721 6.94566 8.28621 7.31734 7.56967V7.57072ZM11.9924 6.75278L15.4105 10.0707L15.4319 9.90377C15.4305 9.48747 15.3452 9.07552 15.1809 8.69149C15.0165 8.30747 14.7764 7.95891 14.4742 7.66576C14.1719 7.37261 13.8136 7.14061 13.4196 6.98305C13.0256 6.82549 12.6038 6.74546 12.1781 6.74754L11.9924 6.75278Z" fill="#8E8E8E"/>
</svg>
