<svg width="17" height="17" viewBox="0 0 17 17" fill="none" xmlns="http://www.w3.org/2000/svg">
<path d="M6.95833 3.49935H10.1094C10.1094 3.0815 9.94338 2.68076 9.64791 2.38529C9.35245 2.08982 8.95171 1.92383 8.53385 1.92383C8.116 1.92383 7.71526 2.08982 7.41979 2.38529C7.12433 2.68076 6.95833 3.0815 6.95833 3.49935ZM5.77669 3.49935C5.77669 3.13727 5.84801 2.77874 5.98657 2.44423C6.12513 2.10972 6.32822 1.80577 6.58425 1.54974C6.84027 1.29372 7.14422 1.09062 7.47873 0.952064C7.81325 0.813504 8.17178 0.742188 8.53385 0.742188C8.89593 0.742188 9.25446 0.813504 9.58897 0.952064C9.92349 1.09062 10.2274 1.29372 10.4835 1.54974C10.7395 1.80577 10.9426 2.10972 11.0811 2.44423C11.2197 2.77874 11.291 3.13727 11.291 3.49935H15.8206C15.9773 3.49935 16.1276 3.5616 16.2384 3.6724C16.3492 3.7832 16.4115 3.93347 16.4115 4.09017C16.4115 4.24686 16.3492 4.39714 16.2384 4.50794C16.1276 4.61874 15.9773 4.68099 15.8206 4.68099H14.7808L13.8591 14.2216C13.7884 14.9526 13.4479 15.6311 12.9041 16.1247C12.3603 16.6182 11.6521 16.8916 10.9176 16.8913H6.15009C5.41579 16.8914 4.70778 16.618 4.16411 16.1244C3.62043 15.6308 3.28007 14.9524 3.20938 14.2216L2.28691 4.68099H1.24707C1.09038 4.68099 0.940097 4.61874 0.829297 4.50794C0.718497 4.39714 0.65625 4.24686 0.65625 4.09017C0.65625 3.93347 0.718497 3.7832 0.829297 3.6724C0.940097 3.5616 1.09038 3.49935 1.24707 3.49935H5.77669ZM7.35221 7.24121C7.35221 7.08452 7.28997 6.93424 7.17917 6.82344C7.06837 6.71264 6.91809 6.65039 6.76139 6.65039C6.6047 6.65039 6.45442 6.71264 6.34362 6.82344C6.23282 6.93424 6.17057 7.08452 6.17057 7.24121V13.1494C6.17057 13.3061 6.23282 13.4564 6.34362 13.5672C6.45442 13.678 6.6047 13.7402 6.76139 13.7402C6.91809 13.7402 7.06837 13.678 7.17917 13.5672C7.28997 13.4564 7.35221 13.3061 7.35221 13.1494V7.24121ZM10.3063 6.65039C10.463 6.65039 10.6133 6.71264 10.7241 6.82344C10.8349 6.93424 10.8971 7.08452 10.8971 7.24121V13.1494C10.8971 13.3061 10.8349 13.4564 10.7241 13.5672C10.6133 13.678 10.463 13.7402 10.3063 13.7402C10.1496 13.7402 9.99934 13.678 9.88854 13.5672C9.77774 13.4564 9.71549 13.3061 9.71549 13.1494V7.24121C9.71549 7.08452 9.77774 6.93424 9.88854 6.82344C9.99934 6.71264 10.1496 6.65039 10.3063 6.65039ZM4.38551 14.1081C4.428 14.5466 4.63227 14.9536 4.9585 15.2497C5.28473 15.5458 5.70953 15.7097 6.15009 15.7096H10.9176C11.3582 15.7097 11.783 15.5458 12.1092 15.2497C12.4354 14.9536 12.6397 14.5466 12.6822 14.1081L13.5944 4.68099H3.47328L4.38551 14.1081Z" fill="white"/>
</svg>
